<svg width="109" height="24" viewBox="0 0 109 24" fill="none" xmlns="http://www.w3.org/2000/svg">
<g clip-path="url(#clip0_1750_21651)">
<path d="M34.949 7.26291C34.949 6.55576 35.4795 5.99658 36.1506 5.99658H39.4116C42.0171 5.99658 43.5931 7.6248 43.5931 9.9768V10.0095C43.5931 12.6741 41.6271 14.0557 39.1776 14.0557H37.3521V16.3417C37.3521 17.0488 36.8216 17.608 36.1506 17.608C35.4795 17.608 34.949 17.0488 34.949 16.3417V7.26291ZM39.255 11.8023C40.4565 11.8023 41.1585 11.0458 41.1585 10.0588V10.0261C41.1585 8.89113 40.4095 8.28262 39.2086 8.28262H37.3521V11.8023H39.2556H39.255Z" fill="#180026"/>
<path d="M43.819 14.9767V14.9441C43.819 13.0199 45.2075 12.1315 47.189 12.1315C48.0315 12.1315 48.64 12.2795 49.233 12.4934V12.3454C49.233 11.3091 48.6245 10.7333 47.4391 10.7333C46.7835 10.7333 46.2536 10.8319 45.8011 10.9799C45.6606 11.0292 45.5671 11.0459 45.4581 11.0459C44.9122 11.0459 44.4751 10.602 44.4751 10.0261C44.4751 9.58224 44.7401 9.20372 45.1152 9.05575C45.8642 8.75981 46.6751 8.59521 47.7832 8.59521C49.0782 8.59521 50.0142 8.9571 50.6072 9.58224C51.2312 10.2401 51.5122 11.2105 51.5122 12.3948V16.4082C51.5122 17.0827 50.9972 17.6092 50.3577 17.6092C49.6712 17.6092 49.2187 17.0993 49.2187 16.5728V16.5562C48.6412 17.2307 47.8457 17.6746 46.6912 17.6746C45.1152 17.6746 43.8202 16.7208 43.8202 14.9773L43.819 14.9767ZM49.264 14.4009V13.957C48.8585 13.7597 48.328 13.6278 47.7505 13.6278C46.7365 13.6278 46.1125 14.0557 46.1125 14.8448V14.8775C46.1125 15.552 46.643 15.9466 47.4075 15.9466C48.515 15.9466 49.264 15.3054 49.264 14.4004V14.4009Z" fill="#180026"/>
<path d="M54.3041 16.5562L52.2601 10.3387C52.2136 10.1907 52.1511 9.94407 52.1511 9.73015C52.1511 9.15434 52.5881 8.59516 53.2901 8.59516C53.8831 8.59516 54.2731 8.98974 54.4446 9.56555L55.7241 14.0396L57.0346 9.58218C57.2061 8.99031 57.6431 8.5791 58.2516 8.5791H58.3921C59.0006 8.5791 59.4377 8.99031 59.6091 9.58218L60.9351 14.0562L62.2456 9.54949C62.4016 9.023 62.7606 8.59573 63.3846 8.59573C64.0401 8.59573 64.4921 9.12222 64.4921 9.74736C64.4921 9.91196 64.4451 10.1419 64.4141 10.2572L62.3076 16.5567C62.0581 17.3298 61.574 17.6751 60.9971 17.6751H60.9191C60.3415 17.6751 59.8581 17.3298 59.6395 16.6061L58.3136 12.1653L56.9715 16.6061C56.753 17.3298 56.2696 17.6751 55.692 17.6751H55.614C55.0365 17.6751 54.553 17.3298 54.3035 16.5567L54.3041 16.5562Z" fill="#180026"/>
<path d="M65.3185 9.84495C65.3185 9.15386 65.849 8.59468 66.5046 8.59468C67.1601 8.59468 67.69 9.15386 67.69 9.84495V9.94359C68.236 9.20318 68.9541 8.5293 70.155 8.5293C71.247 8.5293 72.074 9.03915 72.511 9.92753C73.2446 9.0231 74.118 8.5293 75.257 8.5293C77.02 8.5293 78.081 9.64766 78.081 11.7697V16.3584C78.081 17.0495 77.5505 17.6087 76.8956 17.6087C76.2406 17.6087 75.7101 17.0495 75.7101 16.3584V12.5915C75.7101 11.4072 75.2106 10.7987 74.3216 10.7987C73.4327 10.7987 72.8861 11.4072 72.8861 12.5915V16.3584C72.8861 17.0495 72.3556 17.6087 71.7006 17.6087C71.0457 17.6087 70.5152 17.0495 70.5152 16.3584V12.5915C70.5152 11.4072 70.0157 10.7987 69.1267 10.7987C68.2377 10.7987 67.6912 11.4072 67.6912 12.5915V16.3584C67.6912 17.0495 67.1607 17.6087 66.5057 17.6087C65.8508 17.6087 65.3197 17.0495 65.3197 16.3584V9.84495H65.3185Z" fill="#180026"/>
<path d="M79.0881 14.9767V14.9441C79.0881 13.0199 80.4766 12.1315 82.4581 12.1315C83.3006 12.1315 83.9091 12.2795 84.5021 12.4934V12.3454C84.5021 11.3091 83.8936 10.7333 82.7082 10.7333C82.0526 10.7333 81.5227 10.8319 81.0702 10.9799C80.9297 11.0292 80.8362 11.0459 80.7272 11.0459C80.1813 11.0459 79.7442 10.602 79.7442 10.0261C79.7442 9.58224 80.0092 9.20372 80.3843 9.05575C81.1333 8.75981 81.9443 8.59521 83.0523 8.59521C84.3473 8.59521 85.2833 8.9571 85.8763 9.58224C86.5003 10.2401 86.7813 11.2105 86.7813 12.3948V16.4082C86.7813 17.0827 86.2663 17.6092 85.6268 17.6092C84.9403 17.6092 84.4878 17.0993 84.4878 16.5728V16.5562C83.9103 17.2307 83.1148 17.6746 81.9603 17.6746C80.3843 17.6746 79.0893 16.7208 79.0893 14.9773L79.0881 14.9767ZM84.5331 14.4009V13.957C84.1276 13.7597 83.5971 13.6278 83.0196 13.6278C82.0056 13.6278 81.3816 14.0557 81.3816 14.8448V14.8775C81.3816 15.552 81.9121 15.9466 82.6766 15.9466C83.7841 15.9466 84.5331 15.3054 84.5331 14.4004V14.4009Z" fill="#180026"/>
<path d="M88.5167 15.01V10.832H88.4387C87.8773 10.832 87.4247 10.3548 87.4247 9.76292C87.4247 9.17105 87.8773 8.69388 88.4387 8.69388H88.5167V7.59158C88.5167 6.90049 89.0472 6.34131 89.7022 6.34131C90.3571 6.34131 90.8876 6.90049 90.8876 7.59158V8.69388H91.9332C92.4946 8.69388 92.9471 9.17105 92.9471 9.76292C92.9471 10.3548 92.4946 10.832 91.9332 10.832H90.8876V14.5988C90.8876 15.1746 91.1216 15.4539 91.6521 15.4539C91.7301 15.4539 91.8861 15.4373 91.9332 15.4373C92.4637 15.4373 92.9162 15.8978 92.9162 16.4736C92.9162 16.9175 92.6352 17.2794 92.3077 17.4113C91.8707 17.592 91.4652 17.658 90.9502 17.658C89.4992 17.658 88.5161 17.0495 88.5161 15.01H88.5167Z" fill="#180026"/>
<path d="M97.6661 17.7072C95.1541 17.7072 93.2976 15.8484 93.2976 13.1512V13.1185C93.2976 10.6019 94.9981 8.52979 97.4321 8.52979C100.225 8.52979 101.458 10.9477 101.458 12.7732C101.458 13.497 100.974 13.9742 100.35 13.9742H95.6542C95.8882 15.1092 96.6372 15.7011 97.6982 15.7011C98.3537 15.7011 98.8997 15.4871 99.3832 15.1092C99.5547 14.9778 99.7107 14.9119 99.9602 14.9119C100.491 14.9119 100.881 15.3397 100.881 15.8989C100.881 16.2281 100.74 16.4747 100.569 16.6393C99.8351 17.2972 98.8837 17.7084 97.6667 17.7084L97.6661 17.7072ZM99.1951 12.4108C99.0546 11.2924 98.4306 10.536 97.4321 10.536C96.4336 10.536 95.8096 11.2764 95.6221 12.4108H99.1951Z" fill="#180026"/>
<path d="M102.378 16.6708C102.129 16.5062 101.926 16.2103 101.926 15.8157C101.926 15.2565 102.331 14.8287 102.862 14.8287C103.033 14.8287 103.205 14.878 103.33 14.96C104.126 15.4865 104.921 15.7497 105.592 15.7497C106.263 15.7497 106.591 15.4865 106.591 15.0919V15.0592C106.591 14.5167 105.78 14.3354 104.859 14.0395C103.689 13.6776 102.362 13.1018 102.362 11.3916V11.3589C102.362 9.56607 103.735 8.56299 105.42 8.56299C106.294 8.56299 107.199 8.8096 108.01 9.23745C108.353 9.4181 108.572 9.7473 108.572 10.1751C108.572 10.7343 108.15 11.1622 107.62 11.1622C107.449 11.1622 107.339 11.1295 107.183 11.0469C106.512 10.7016 105.873 10.4877 105.373 10.4877C104.795 10.4877 104.5 10.751 104.5 11.0962V11.1289C104.5 11.6221 105.295 11.8527 106.2 12.1813C107.37 12.5925 108.728 13.1844 108.728 14.7966V14.8292C108.728 16.7867 107.339 17.675 105.529 17.675C104.5 17.675 103.392 17.3625 102.378 16.672L102.378 16.6708Z" fill="#180026"/>
<path d="M24.063 12.5289L14.6147 21.8755L15.3912 22.6604L24.8394 13.3138L24.063 12.5289Z" fill="#180026"/>
<path d="M27.0001 7.74149C26.9559 10.9228 24.7502 15.0579 20.9041 15.6233C20.3197 15.699 19.6636 15.6784 18.9817 15.4599C17.8731 15.1083 17.2526 14.2561 16.9142 13.1716C16.5844 12.1105 16.5328 11.014 16.5615 9.91225C16.5689 9.75052 16.6228 9.62549 16.6722 9.62664H16.6745C16.7117 9.62549 16.7427 9.71439 16.7513 9.88243C16.7983 10.9107 16.9996 11.9018 17.4762 12.82C17.872 13.5845 18.4243 14.1855 19.2799 14.4195C20.5446 14.7654 21.9262 14.2073 22.6757 13.0419C23.2567 12.1421 23.4305 11.1402 23.3215 10.0837C23.173 8.67001 22.6385 7.44727 21.5625 6.50039C20.7849 5.81733 19.8787 5.4262 18.871 5.29314C17.3965 5.09642 15.9455 5.17786 14.5381 5.72729C13.3033 6.20847 12.3587 7.01713 11.7313 8.20432C11.5874 8.47674 11.448 8.75145 11.3195 9.03248C10.9462 9.84744 10.1771 10.4043 9.29902 10.4967C8.49495 10.5804 8.53681 10.5689 7.73159 10.6309C7.6513 10.6366 7.60886 10.6188 7.52857 10.6108C7.18962 10.577 6.6075 10.4496 6.30239 10.7198C6.14467 10.8591 6.2479 11.2698 6.27887 11.4848C6.28117 11.5003 6.30812 11.4946 6.31156 11.5296C6.36203 12.0733 6.67345 14.5807 8.70256 15.2741C9.23192 15.4312 9.7716 15.4662 10.3187 15.4553C11.0087 15.441 11.6998 15.4123 12.3886 15.4301C15.3416 15.4301 16.3797 18.55 16.5058 19.4235L16.5081 19.4424C16.675 20.6038 16.2908 21.7778 15.4712 22.6053L14.9264 23.1559L14.51 23.5757C14.475 23.6107 14.4395 23.644 14.401 23.6755C13.8396 24.1378 13.016 24.1051 12.4918 23.5757L2.24418 13.2197C1.93677 12.9089 1.65517 12.5717 1.40282 12.2126C1.40168 12.2103 1.39938 12.2069 1.39709 12.2029C0.516166 10.9417 0 9.40239 0 7.74149C0.00114704 3.50319 3.41874 0.0276722 7.61058 0.000143361C9.97118 -0.0141946 12.0852 1.04796 13.5 2.73124C14.9149 1.04796 17.0289 -0.0141946 19.3895 0.000143361C23.5813 0.0276722 26.9989 3.50319 27.0001 7.74149ZM13.3412 9.05943C13.7656 9.05943 14.1097 9.40125 14.1097 9.82336C14.1097 10.2443 13.7621 10.593 13.3435 10.593C12.9214 10.593 12.5772 10.2489 12.5761 9.82565C12.575 9.40125 12.9162 9.05943 13.3412 9.05943Z" fill="#180026"/>
<g opacity="0.5" style="mix-blend-mode:soft-light">
<path d="M15.4701 22.606L14.9252 23.1566C15.5251 22.4328 15.836 21.4957 15.7798 20.5368L15.7786 20.519C15.7259 19.6381 14.9493 16.4413 12.006 16.1976C11.3207 16.1218 10.6296 16.0943 9.9408 16.0513C9.39481 16.0163 8.85972 15.9372 8.3447 15.737C6.08389 14.7615 6.31387 11.9713 6.29552 11.7063C6.29093 11.6295 6.29552 11.5624 6.311 11.5073C6.36147 12.051 6.62013 14.5607 8.70085 15.2742C9.23021 15.4313 9.76989 15.4663 10.317 15.4554C11.007 15.4411 11.6981 15.4124 12.3869 15.4302C15.3399 15.4302 16.378 18.5501 16.5041 19.4236L16.5064 19.4425C16.6733 20.6039 16.2891 21.7779 15.4695 22.6055L15.4701 22.606Z" fill="#180026"/>
</g>
<path d="M6.26284 11.5087C6.26284 11.4898 6.86446 11.5213 7.17187 11.3063C7.43339 11.1239 7.50393 10.8641 7.57218 10.7746C7.57734 10.7683 7.58996 10.7706 7.58996 10.7786C7.5934 10.8503 7.54752 11.2071 7.23725 11.398C6.87192 11.6223 6.26227 11.5242 6.26227 11.511C6.26227 11.5099 6.26227 11.5093 6.26227 11.5087H6.26284Z" fill="#180026"/>
<path d="M7.45691 14.4607C7.45691 14.4607 10.2236 14.5496 11.335 14.2112C12.2802 13.9239 12.5555 13.6641 12.5555 13.6641C12.5658 13.6423 12.6077 13.5769 12.5991 13.6096C12.5698 13.7162 12.4454 14.2921 11.323 14.5926C10.0028 14.9459 7.83314 14.8272 7.83371 14.8071C7.83371 14.8054 7.4787 14.4785 7.45748 14.4612L7.45691 14.4607Z" fill="#180026"/>
</g>
<defs>
<clipPath id="clip0_1750_21651">
<rect width="108.728" height="24" fill="white"/>
</clipPath>
</defs>
</svg>
